<svg width="50" height="50" viewBox="0 0 50 50" fill="none" xmlns="http://www.w3.org/2000/svg">
  <path d="M22.4155 4.35017C25.6886 0.022001 30.2415 0 30.2415 0C30.2415 0 30.9193 4.07016 27.6661 7.99232C24.1936 12.1805 20.2447 11.4945 20.2447 11.4945C20.2447 11.4945 19.5032 8.20233 22.4155 4.35017ZM20.6613 14.3466C22.3457 14.3466 25.4714 12.0225 29.5418 12.0225C36.5466 12.0225 39.3014 17.0227 39.3014 17.0227C39.3014 17.0227 33.9113 19.7868 33.9113 26.4951C33.9113 34.0634 40.625 36.6715 40.625 36.6715C40.625 36.6715 35.9326 49.926 29.5937 49.926C26.6813 49.926 24.4189 47.9579 21.351 47.9579C18.2254 47.9579 15.1217 50 13.1025 50C7.3137 50 0 37.4275 0 27.3211C0 17.3787 6.18943 12.1625 11.9961 12.1625C15.7696 12.1625 18.6979 14.3466 20.6613 14.3466Z" fill="black"/>
</svg>
