<svg width="33" height="33" viewBox="0 0 33 33" fill="none" xmlns="http://www.w3.org/2000/svg">
<g clip-path="url(#clip0_918_54655)">
<path d="M28.9757 1.58984H4.02255C3.24523 1.58984 2.61523 2.22072 2.61523 2.99803V7.68003H30.3837V2.99803C30.3838 2.22066 29.7529 1.58984 28.9757 1.58984ZM9.75961 4.40709C9.38755 4.40709 9.08561 4.10516 9.08561 3.73309C9.08561 3.36103 9.38755 3.05909 9.75961 3.05909C10.1317 3.05909 10.4336 3.36103 10.4336 3.73309C10.4336 4.10516 10.1316 4.40709 9.75961 4.40709ZM23.4156 4.40709C23.0435 4.40709 22.7416 4.10516 22.7416 3.73309C22.7416 3.36103 23.0435 3.05909 23.4156 3.05909C23.7877 3.05909 24.0896 3.36103 24.0896 3.73309C24.0896 4.10516 23.7876 4.40709 23.4156 4.40709Z" fill="#E6E6E6"/>
<path d="M32.4691 8.00612L30.3392 19.1126L31.2091 30.6622C31.2729 31.5096 30.6025 32.2331 29.7515 32.2331H3.24749C2.39736 32.2331 1.72605 31.5096 1.78986 30.6622L2.66068 19.1126L0.530864 8.00612C0.330489 6.96187 1.13118 5.99219 2.19518 5.99219H30.8039C31.8688 5.99219 32.6694 6.96187 32.4691 8.00612Z" fill="#3A5BBC"/>
<path d="M29.752 32.2337H3.24796C2.39783 32.2337 1.72652 31.5103 1.79033 30.6628L2.66115 19.1133H30.3398L31.2096 30.6628C31.2735 31.5103 30.603 32.2337 29.752 32.2337Z" fill="#518EF8"/>
<path d="M15.9609 16.215C15.9609 14.0471 14.1468 12.2834 11.917 12.2834C9.68717 12.2834 7.87305 14.0471 7.87305 16.215H9.22105C9.22105 14.7904 10.4305 13.6314 11.917 13.6314C13.4036 13.6314 14.613 14.7904 14.613 16.215C14.613 17.6397 13.4036 18.7987 11.917 18.7987H10.6589V20.1467H11.917C13.4036 20.1467 14.613 21.3057 14.613 22.7303C14.613 24.1549 13.4036 25.3139 11.917 25.3139C10.4305 25.3139 9.22105 24.1549 9.22105 22.7303H7.87305C7.87305 24.8982 9.68717 26.6619 11.917 26.6619C14.1468 26.6619 15.9609 24.8982 15.9609 22.7303C15.9609 21.3763 15.2533 20.1802 14.1789 19.4727C15.2534 18.7652 15.9609 17.569 15.9609 16.215ZM18.5808 14.5805L19.2723 15.7377L21.937 14.1453V25.9879H23.285V11.7695L18.5808 14.5805Z" fill="white"/>
</g>
<defs>
<clipPath id="clip0_918_54655">
<rect width="32" height="32" fill="white" transform="translate(0.5 0.910156)"/>
</clipPath>
</defs>
</svg>
