<svg width="24" height="25" viewBox="0 0 24 25" fill="none" xmlns="http://www.w3.org/2000/svg">
<path d="M8 6.71875C7.59 6.71875 7.25 6.37875 7.25 5.96875V2.96875C7.25 2.55875 7.59 2.21875 8 2.21875C8.41 2.21875 8.75 2.55875 8.75 2.96875V5.96875C8.75 6.37875 8.41 6.71875 8 6.71875Z" fill="#292D32"/>
<path d="M16 6.71875C15.59 6.71875 15.25 6.37875 15.25 5.96875V2.96875C15.25 2.55875 15.59 2.21875 16 2.21875C16.41 2.21875 16.75 2.55875 16.75 2.96875V5.96875C16.75 6.37875 16.41 6.71875 16 6.71875Z" fill="#292D32"/>
<path d="M20.5 10.8086H3.5C3.09 10.8086 2.75 10.4686 2.75 10.0586C2.75 9.64859 3.09 9.30859 3.5 9.30859H20.5C20.91 9.30859 21.25 9.64859 21.25 10.0586C21.25 10.4686 20.91 10.8086 20.5 10.8086Z" fill="#292D32"/>
<path d="M16 23.7188H8C4.35 23.7188 2.25 21.6187 2.25 17.9688V9.46875C2.25 5.81875 4.35 3.71875 8 3.71875H16C19.65 3.71875 21.75 5.81875 21.75 9.46875V17.9688C21.75 21.6187 19.65 23.7188 16 23.7188ZM8 5.21875C5.14 5.21875 3.75 6.60875 3.75 9.46875V17.9688C3.75 20.8288 5.14 22.2188 8 22.2188H16C18.86 22.2188 20.25 20.8288 20.25 17.9688V9.46875C20.25 6.60875 18.86 5.21875 16 5.21875H8Z" fill="#292D32"/>
<path d="M8.5 15.4688C8.37 15.4688 8.24 15.4388 8.12 15.3888C8 15.3388 7.89001 15.2688 7.79001 15.1788C7.70001 15.0788 7.62999 14.9688 7.57999 14.8488C7.52999 14.7288 7.5 14.5988 7.5 14.4688C7.5 14.2088 7.61001 13.9488 7.79001 13.7588C7.89001 13.6688 8 13.5987 8.12 13.5487C8.3 13.4687 8.50001 13.4488 8.70001 13.4888C8.76001 13.4988 8.82 13.5187 8.88 13.5487C8.94 13.5687 9 13.5988 9.06 13.6388C9.11 13.6788 9.15999 13.7188 9.20999 13.7588C9.24999 13.8088 9.29999 13.8588 9.32999 13.9088C9.36999 13.9688 9.40001 14.0288 9.42001 14.0888C9.45001 14.1488 9.47001 14.2087 9.48001 14.2687C9.49001 14.3387 9.5 14.3988 9.5 14.4688C9.5 14.7288 9.38999 14.9888 9.20999 15.1788C9.01999 15.3588 8.76 15.4688 8.5 15.4688Z" fill="#292D32"/>
<path d="M12 15.4676C11.74 15.4676 11.48 15.3576 11.29 15.1776C11.25 15.1276 11.21 15.0776 11.17 15.0276C11.13 14.9676 11.1 14.9077 11.08 14.8477C11.05 14.7877 11.03 14.7277 11.02 14.6677C11.01 14.5977 11 14.5376 11 14.4676C11 14.3376 11.03 14.2076 11.08 14.0876C11.13 13.9676 11.2 13.8577 11.29 13.7577C11.57 13.4777 12.02 13.3876 12.38 13.5476C12.51 13.5976 12.61 13.6677 12.71 13.7577C12.89 13.9477 13 14.2076 13 14.4676C13 14.5376 12.99 14.5977 12.98 14.6677C12.97 14.7277 12.95 14.7877 12.92 14.8477C12.9 14.9077 12.87 14.9676 12.83 15.0276C12.79 15.0776 12.75 15.1276 12.71 15.1776C12.61 15.2676 12.51 15.3377 12.38 15.3877C12.26 15.4377 12.13 15.4676 12 15.4676Z" fill="#292D32"/>
<path d="M8.5 18.9676C8.37 18.9676 8.24 18.9377 8.12 18.8877C8 18.8377 7.89001 18.7676 7.79001 18.6776C7.70001 18.5776 7.62999 18.4777 7.57999 18.3477C7.52999 18.2277 7.5 18.0976 7.5 17.9676C7.5 17.7076 7.61001 17.4477 7.79001 17.2577C7.89001 17.1677 8 17.0976 8.12 17.0476C8.49 16.8876 8.92999 16.9777 9.20999 17.2577C9.24999 17.3077 9.29999 17.3576 9.32999 17.4076C9.36999 17.4676 9.40001 17.5276 9.42001 17.5876C9.45001 17.6476 9.47001 17.7076 9.48001 17.7776C9.49001 17.8376 9.5 17.9076 9.5 17.9676C9.5 18.2276 9.38999 18.4876 9.20999 18.6776C9.01999 18.8576 8.76 18.9676 8.5 18.9676Z" fill="#292D32"/>
</svg>
