<svg width="24" height="24" viewBox="0 0 24 24" fill="none" xmlns="http://www.w3.org/2000/svg">
<path d="M22.2853 12.0001C22.2853 17.6807 17.6802 22.2858 11.9996 22.2858C6.31894 22.2858 1.71387 17.6807 1.71387 12.0001C1.71387 6.31943 6.31894 1.71436 11.9996 1.71436C17.6802 1.71436 22.2853 6.31943 22.2853 12.0001ZM17.1814 8.10393C16.8048 7.72736 16.1943 7.72736 15.8177 8.10393C15.8086 8.11303 15.8001 8.12266 15.7921 8.13278L11.3277 13.8216L8.63599 11.1299C8.25942 10.7534 7.64887 10.7534 7.27229 11.1299C6.89571 11.5065 6.89571 12.1171 7.27229 12.4936L10.6749 15.8962C11.0514 16.2728 11.662 16.2728 12.0386 15.8962C12.047 15.8878 12.0549 15.879 12.0623 15.8697L17.1951 9.45368C17.5579 9.07612 17.5534 8.47589 17.1814 8.10393Z" fill="#0EA473"/>
</svg>
