<svg width="33" height="33" viewBox="0 0 33 33" fill="none" xmlns="http://www.w3.org/2000/svg">
<g clip-path="url(#clip0_918_54660)">
<path d="M11.5337 21.554C10.9042 21.1288 10.4684 20.5077 10.2305 19.6867L11.6915 19.0845C11.8242 19.5898 12.0557 19.9814 12.3863 20.2593C12.7147 20.5372 13.1147 20.674 13.5821 20.674C14.06 20.674 14.4705 20.5288 14.8137 20.2382C15.1568 19.9477 15.3295 19.5772 15.3295 19.1287C15.3295 18.6698 15.1484 18.295 14.7863 18.0045C14.2431 17.5688 13.9695 17.5687 13.4263 17.5687H12.5821V16.1224H13.34C13.8073 16.1224 14.201 15.9961 14.521 15.7435C15.001 15.3645 15.001 15.1456 15.001 14.7056C15.001 14.314 14.8578 14.0024 14.5715 13.7688C14.2852 13.5352 13.9231 13.4172 13.4831 13.4172C13.0536 13.4172 12.7126 13.5309 12.4599 13.7604C12.2072 13.9899 12.0241 14.272 11.9083 14.6046L10.462 14.0025C10.6536 13.4593 11.0052 12.9793 11.521 12.5646C12.0367 12.1499 12.6957 11.9414 13.4957 11.9414C14.0873 11.9414 14.6199 12.0551 15.0915 12.2846C15.5631 12.5141 15.9337 12.832 16.201 13.2362C16.4684 13.6425 16.601 14.0972 16.601 14.6025C16.601 15.1183 16.4768 15.554 16.2284 15.912C15.98 16.2698 15.6747 16.5435 15.3126 16.7352V16.8215C15.7905 17.0215 16.18 17.3267 16.4873 17.7373C16.7926 18.1478 16.9463 18.6383 16.9463 19.211C16.9463 19.7836 16.801 20.2952 16.5105 20.7436C16.22 21.192 15.8178 21.5457 15.3083 21.8025C14.7968 22.0593 14.222 22.1899 13.5842 22.1899C12.8452 22.192 12.1632 21.9793 11.5337 21.554ZM20.5084 14.3035L18.9042 15.4635L18.1021 14.2467L20.98 12.1709H22.0832V21.9625H20.5084V14.3035Z" fill="#0085F7"/>
<path d="M24.921 25.332H8.07884L5.66797 28.8843L8.07884 32.911H24.921L26.9127 28.6268L24.921 25.332Z" fill="#00A94B"/>
<path d="M24.9211 0.910156H3.02631C1.6305 0.910156 0.5 2.04066 0.5 3.43647V25.3312L4.2895 28.0252L8.079 25.3312V8.48909H24.9211L27.5138 4.69959L24.9211 0.910156Z" fill="#0085F7"/>
<path d="M0.5 25.332V30.3847C0.5 31.7805 1.6305 32.911 3.02631 32.911H8.07894V25.332H0.5Z" fill="#00802E"/>
<path d="M32.4998 8.48916L28.7103 6.05078L24.9209 8.48916V25.3313L28.329 27.1102L32.4998 25.3313V8.48916Z" fill="#FFBC00"/>
<path d="M32.4998 8.48909V3.43647C32.4998 2.04066 31.3693 0.910156 29.9735 0.910156H24.9209V8.48909H32.4998Z" fill="#0067D5"/>
<path d="M24.9209 32.911L32.4998 25.332H24.9209V32.911Z" fill="#FF4131"/>
</g>
<defs>
<clipPath id="clip0_918_54660">
<rect width="32" height="32" fill="white" transform="translate(0.5 0.910156)"/>
</clipPath>
</defs>
</svg>
