<svg width="24" height="25" viewBox="0 0 24 25" fill="none" xmlns="http://www.w3.org/2000/svg">
<path d="M12 3.16016C10.6198 3.16016 9.32422 3.42057 8.11328 3.94141C6.88932 4.46224 5.82487 5.17513 4.91992 6.08008C4.01497 6.98503 3.30208 8.04948 2.78125 9.27344C2.26042 10.4844 2 11.7799 2 13.1602C2 14.5404 2.26042 15.8359 2.78125 17.0469C3.30208 18.2708 4.01497 19.3353 4.91992 20.2402C5.82487 21.1452 6.88932 21.8581 8.11328 22.3789C9.32422 22.8997 10.6198 23.1602 12 23.1602C13.3802 23.1602 14.6758 22.8997 15.8867 22.3789C17.1107 21.8581 18.1751 21.1452 19.0801 20.2402C19.985 19.3353 20.6979 18.2708 21.2188 17.0469C21.7396 15.8359 22 14.5404 22 13.1602C22 11.7799 21.7396 10.4844 21.2188 9.27344C20.6979 8.04948 19.985 6.98503 19.0801 6.08008C18.1751 5.17513 17.1107 4.46224 15.8867 3.94141C14.6758 3.42057 13.3802 3.16016 12 3.16016ZM11.0039 21.0898C10.0143 20.9727 9.09635 20.6797 8.25 20.2109C7.39062 19.7552 6.64844 19.1758 6.02344 18.4727C5.39844 17.7695 4.90365 16.9622 4.53906 16.0508C4.17448 15.1393 3.99219 14.1758 3.99219 13.1602C3.99219 12.8477 4.01172 12.5417 4.05078 12.2422C4.08984 11.9427 4.14193 11.6497 4.20703 11.3633L8.99219 16.168V17.1641C8.99219 17.7109 9.1875 18.1797 9.57812 18.5703C9.96875 18.9609 10.444 19.1562 11.0039 19.1562V21.0898ZM17.8984 18.5508C17.7682 18.1471 17.5306 17.8151 17.1855 17.5547C16.8405 17.2943 16.4466 17.1641 16.0039 17.1641H15.0078V14.1562C15.0078 13.8828 14.9102 13.6484 14.7148 13.4531C14.5195 13.2578 14.2786 13.1602 13.9922 13.1602H7.99609V11.168H10.0078C10.2812 11.168 10.5156 11.0703 10.7109 10.875C10.9062 10.6797 11.0039 10.4388 11.0039 10.1523V8.16016H12.9961C13.556 8.16016 14.0312 7.96484 14.4219 7.57422C14.8125 7.18359 15.0078 6.71484 15.0078 6.16797V5.73828C15.737 6.03776 16.4076 6.4349 17.0195 6.92969C17.6315 7.42448 18.1589 7.99414 18.6016 8.63867C19.0443 9.2832 19.3893 9.98958 19.6367 10.7578C19.8841 11.513 20.0078 12.3138 20.0078 13.1602C20.0078 14.2018 19.819 15.1849 19.4414 16.1094C19.0638 17.0339 18.5495 17.8477 17.8984 18.5508Z" fill="#292D32"/>
</svg>
