<svg width="38" height="33" viewBox="0 0 38 33" fill="none" xmlns="http://www.w3.org/2000/svg">
<g clip-path="url(#clip0_918_54649)">
<path d="M9.01465 7.27344H37.492V26.539H9.01465V7.27344Z" fill="#4C97E3"/>
<path d="M23.2533 14.7617L37.4999 26.5325H9.01465L23.2533 14.7617Z" fill="#E3EDF0"/>
<path d="M23.2533 19.2792L9.01465 7.27344H37.4999L23.2533 19.2792Z" fill="#52C1FF"/>
<path d="M19.6088 32.8983L1.54359 30.3139C0.942735 30.2277 0.5 29.7187 0.5 29.1235V4.68904C0.5 4.08601 0.942735 3.58479 1.54359 3.49865L19.6088 0.922069C20.344 0.820259 21.0002 1.38413 21.0002 2.11246V31.7079C21.0002 32.4362 20.344 33.0001 19.6088 32.8983Z" fill="#4C97E3"/>
<path d="M10.8174 11.7383C7.90009 11.7383 5.86035 13.892 5.86035 16.9854C5.86035 19.9849 7.83685 22.0759 10.6593 22.0759C13.0548 22.0759 15.6401 20.4313 15.6401 16.8288C15.6401 13.8371 13.6557 11.7383 10.8174 11.7383ZM13.3157 16.8914C13.3157 18.8258 12.2326 20.2355 10.7383 20.2355C9.24411 20.2355 8.16099 18.8415 8.16099 16.9306C8.16099 15.2625 8.9674 13.5865 10.7779 13.5865C12.786 13.5787 13.3157 15.748 13.3157 16.8914Z" fill="white"/>
</g>
<defs>
<clipPath id="clip0_918_54649">
<rect width="37" height="32" fill="white" transform="translate(0.5 0.910156)"/>
</clipPath>
</defs>
</svg>
